<svg xmlns="http://www.w3.org/2000/svg" xmlns:xlink="http://www.w3.org/1999/xlink" version="1.1" x="0px" y="0px" viewBox="20.865 20.865 100 125" enable-background="new 20.865 20.865 100 100" xml:space="preserve"><path fill="#000000" d="M100.156,116.575H39.355c-1.125,0-2.036-0.91-2.036-2.034V62.061c0-1.125,0.911-2.036,2.036-2.036  s2.035,0.911,2.035,2.036v50.443h56.608c-0.589-10.156-3.021-53.685-3.038-78.503c0-1.125,0.91-2.036,2.034-2.038  c0.001,0,0.001,0,0.001,0c1.124,0,2.035,0.911,2.035,2.034c0.019,27.968,3.123,79.897,3.156,80.421  c0.032,0.56-0.165,1.108-0.55,1.517S100.717,116.575,100.156,116.575z"/><path fill="#000000" d="M25.916,78.711c-0.48,0-0.963-0.17-1.351-0.514c-0.84-0.747-0.917-2.033-0.169-2.873  c21.765-24.502,45.296-46.246,45.53-46.462c0.402-0.371,0.939-0.565,1.48-0.537c0.547,0.027,1.059,0.272,1.421,0.68  c14.474,16.28,43.862,43.499,44.158,43.773c0.825,0.763,0.874,2.05,0.111,2.875c-0.762,0.825-2.05,0.876-2.876,0.11  c-0.287-0.266-28.037-25.966-43.042-42.504c-5.523,5.183-25.274,23.979-43.739,44.766C27.035,78.479,26.476,78.711,25.916,78.711z"/><path d="M59.77,116.575c-1.062,0-1.957-0.824-2.027-1.899c-1.904-28.454-0.156-29.327,1.121-29.967  c2.1-1.052,12.592-1.849,16.122-0.672c1.005,0.335,1.672,0.854,2.035,1.584c0.757,1.51,0.828,11.262,0.214,28.989  c-0.04,1.124-0.988,2.001-2.104,1.964c-1.124-0.04-2.003-0.98-1.964-2.104c0.387-11.176,0.556-23.584,0.222-26.676  c-2.268-0.576-9.632-0.162-12.123,0.392c-0.556,3.139-0.19,15.35,0.537,26.217c0.076,1.122-0.773,2.093-1.894,2.167  C59.863,116.574,59.816,116.575,59.77,116.575z"/><path d="M72.107,74.496c-3.739,0-8.463-0.416-9.744-2.396c-1.438-2.218-0.679-7.005-0.286-8.959l0.063-0.313l0.156-0.279  c1.564-2.799,10.769-3.682,13.232-3.682c1.319,0,5.331,0,6.044,2.813l0.066,0.258c0.806,3.159,1.91,7.483-0.47,10.353  C79.956,73.755,76.907,74.496,72.107,74.496z M65.713,69.687c0.769,0.3,3.056,0.739,6.394,0.739c3.587,0,5.529-0.519,5.976-0.794  c0.948-1.275,0.211-4.332-0.333-6.471c-0.313-0.092-0.978-0.222-2.22-0.222c-3.683,0-8.163,1.045-9.594,1.721  C65.591,66.707,65.495,68.852,65.713,69.687z"/></svg>